<svg width="79" height="131" viewBox="0 0 79 131" fill="none" xmlns="http://www.w3.org/2000/svg">
<path d="M19.858 14.3636V58H14.5739V19.9034H14.3182L3.66477 26.9773V21.608L14.5739 14.3636H19.858Z" fill="white"/>
<path d="M19.858 14.3636H20.358V13.8636H19.858V14.3636ZM19.858 58V58.5H20.358V58H19.858ZM14.5739 58H14.0739V58.5H14.5739V58ZM14.5739 19.9034H15.0739V19.4034H14.5739V19.9034ZM14.3182 19.9034V19.4034H14.1673L14.0416 19.4869L14.3182 19.9034ZM3.66477 26.9773H3.16477V27.9095L3.94135 27.3938L3.66477 26.9773ZM3.66477 21.608L3.38817 21.1914L3.16477 21.3398V21.608H3.66477ZM14.5739 14.3636V13.8636H14.423L14.2973 13.9471L14.5739 14.3636ZM19.358 14.3636V58H20.358V14.3636H19.358ZM19.858 57.5H14.5739V58.5H19.858V57.5ZM15.0739 58V19.9034H14.0739V58H15.0739ZM14.5739 19.4034H14.3182V20.4034H14.5739V19.4034ZM14.0416 19.4869L3.38819 26.5607L3.94135 27.3938L14.5948 20.3199L14.0416 19.4869ZM4.16477 26.9773V21.608H3.16477V26.9773H4.16477ZM3.94137 22.0245L14.8505 14.7802L14.2973 13.9471L3.38817 21.1914L3.94137 22.0245ZM14.5739 14.8636H19.858V13.8636H14.5739V14.8636Z" fill="url(#paint0_linear_12_11)"/>
<path d="M19.858 14.3636H20.358V13.8636H19.858V14.3636ZM19.858 58V58.5H20.358V58H19.858ZM14.5739 58H14.0739V58.5H14.5739V58ZM14.5739 19.9034H15.0739V19.4034H14.5739V19.9034ZM14.3182 19.9034V19.4034H14.1673L14.0416 19.4869L14.3182 19.9034ZM3.66477 26.9773H3.16477V27.9095L3.94135 27.3938L3.66477 26.9773ZM3.66477 21.608L3.38817 21.1914L3.16477 21.3398V21.608H3.66477ZM14.5739 14.3636V13.8636H14.423L14.2973 13.9471L14.5739 14.3636ZM19.358 14.3636V58H20.358V14.3636H19.358ZM19.858 57.5H14.5739V58.5H19.858V57.5ZM15.0739 58V19.9034H14.0739V58H15.0739ZM14.5739 19.4034H14.3182V20.4034H14.5739V19.4034ZM14.0416 19.4869L3.38819 26.5607L3.94135 27.3938L14.5948 20.3199L14.0416 19.4869ZM4.16477 26.9773V21.608H3.16477V26.9773H4.16477ZM3.94137 22.0245L14.8505 14.7802L14.2973 13.9471L3.38817 21.1914L3.94137 22.0245ZM14.5739 14.8636H19.858V13.8636H14.5739V14.8636Z" fill="black" fill-opacity="0.2"/>
<path d="M70.858 72.3636V116H65.5739V77.9034H65.3182L54.6648 84.9773V79.608L65.5739 72.3636H70.858Z" fill="white"/>
<path d="M70.858 72.3636H71.358V71.8636H70.858V72.3636ZM70.858 116V116.5H71.358V116H70.858ZM65.5739 116H65.0739V116.5H65.5739V116ZM65.5739 77.9034H66.0739V77.4034H65.5739V77.9034ZM65.3182 77.9034V77.4034H65.1673L65.0416 77.4869L65.3182 77.9034ZM54.6648 84.9773H54.1648V85.9095L54.9414 85.3938L54.6648 84.9773ZM54.6648 79.608L54.3882 79.1914L54.1648 79.3398V79.608H54.6648ZM65.5739 72.3636V71.8636H65.423L65.2973 71.9471L65.5739 72.3636ZM70.358 72.3636V116H71.358V72.3636H70.358ZM70.858 115.5H65.5739V116.5H70.858V115.5ZM66.0739 116V77.9034H65.0739V116H66.0739ZM65.5739 77.4034H65.3182V78.4034H65.5739V77.4034ZM65.0416 77.4869L54.3882 84.5607L54.9414 85.3938L65.5948 78.3199L65.0416 77.4869ZM55.1648 84.9773V79.608H54.1648V84.9773H55.1648ZM54.9414 80.0245L65.8505 72.7802L65.2973 71.9471L54.3882 79.1914L54.9414 80.0245ZM65.5739 72.8636H70.858V71.8636H65.5739V72.8636Z" fill="url(#paint1_linear_12_11)"/>
<path d="M70.858 72.3636H71.358V71.8636H70.858V72.3636ZM70.858 116V116.5H71.358V116H70.858ZM65.5739 116H65.0739V116.5H65.5739V116ZM65.5739 77.9034H66.0739V77.4034H65.5739V77.9034ZM65.3182 77.9034V77.4034H65.1673L65.0416 77.4869L65.3182 77.9034ZM54.6648 84.9773H54.1648V85.9095L54.9414 85.3938L54.6648 84.9773ZM54.6648 79.608L54.3882 79.1914L54.1648 79.3398V79.608H54.6648ZM65.5739 72.3636V71.8636H65.423L65.2973 71.9471L65.5739 72.3636ZM70.358 72.3636V116H71.358V72.3636H70.358ZM70.858 115.5H65.5739V116.5H70.858V115.5ZM66.0739 116V77.9034H65.0739V116H66.0739ZM65.5739 77.4034H65.3182V78.4034H65.5739V77.4034ZM65.0416 77.4869L54.3882 84.5607L54.9414 85.3938L65.5948 78.3199L65.0416 77.4869ZM55.1648 84.9773V79.608H54.1648V84.9773H55.1648ZM54.9414 80.0245L65.8505 72.7802L65.2973 71.9471L54.3882 79.1914L54.9414 80.0245ZM65.5739 72.8636H70.858V71.8636H65.5739V72.8636Z" fill="black" fill-opacity="0.2"/>
<path d="M18.75 116.597C15.5398 116.597 12.8054 115.723 10.5469 113.976C8.28835 112.214 6.5625 109.665 5.36932 106.327C4.17614 102.974 3.57955 98.9261 3.57955 94.1818C3.57955 89.4659 4.17614 85.4389 5.36932 82.1009C6.5767 78.7486 8.30966 76.1918 10.5682 74.4304C12.8409 72.6548 15.5682 71.767 18.75 71.767C21.9318 71.767 24.652 72.6548 26.9105 74.4304C29.1832 76.1918 30.9162 78.7486 32.1094 82.1009C33.3168 85.4389 33.9205 89.4659 33.9205 94.1818C33.9205 98.9261 33.3239 102.974 32.1307 106.327C30.9375 109.665 29.2116 112.214 26.9531 113.976C24.6946 115.723 21.9602 116.597 18.75 116.597ZM18.75 111.909C21.9318 111.909 24.4034 110.375 26.1648 107.307C27.9261 104.239 28.8068 99.8636 28.8068 94.1818C28.8068 90.4034 28.402 87.1861 27.5923 84.5298C26.7969 81.8736 25.6463 79.8494 24.1406 78.4574C22.6491 77.0653 20.8523 76.3693 18.75 76.3693C15.5966 76.3693 13.1321 77.9247 11.3565 81.0355C9.58097 84.1321 8.69318 88.5142 8.69318 94.1818C8.69318 97.9602 9.09091 101.17 9.88636 103.812C10.6818 106.455 11.8253 108.464 13.3168 109.842C14.8224 111.22 16.6335 111.909 18.75 111.909Z" fill="white"/>
<path d="M10.5469 113.976L10.2394 114.37L10.2409 114.371L10.5469 113.976ZM5.36932 106.327L4.89827 106.494L4.89849 106.495L5.36932 106.327ZM5.36932 82.1009L4.8989 81.9314L4.89849 81.9326L5.36932 82.1009ZM10.5682 74.4304L10.8757 74.8247L10.876 74.8244L10.5682 74.4304ZM26.9105 74.4304L26.6015 74.8235L26.6042 74.8256L26.9105 74.4304ZM32.1094 82.1009L31.6383 82.2685L31.6392 82.2709L32.1094 82.1009ZM32.1307 106.327L32.6015 106.495L32.6017 106.494L32.1307 106.327ZM26.9531 113.976L27.2591 114.371L27.2606 114.37L26.9531 113.976ZM26.1648 107.307L25.7311 107.058L25.7311 107.058L26.1648 107.307ZM27.5923 84.5298L27.1133 84.6733L27.1141 84.6756L27.5923 84.5298ZM24.1406 78.4574L23.7995 78.8229L23.8012 78.8245L24.1406 78.4574ZM11.3565 81.0355L11.7903 81.2842L11.7908 81.2834L11.3565 81.0355ZM9.88636 103.812L9.40759 103.957L9.40759 103.957L9.88636 103.812ZM13.3168 109.842L12.9775 110.21L12.9792 110.211L13.3168 109.842ZM18.75 116.097C15.636 116.097 13.0129 115.251 10.8528 113.58L10.2409 114.371C12.5979 116.195 15.4435 117.097 18.75 117.097V116.097ZM10.8544 113.582C8.68659 111.891 7.00899 109.428 5.84014 106.158L4.89849 106.495C6.11601 109.901 7.89012 112.538 10.2394 114.37L10.8544 113.582ZM5.84037 106.159C4.67154 102.875 4.07955 98.8869 4.07955 94.1818H3.07955C3.07955 98.9654 3.68073 103.074 4.89827 106.494L5.84037 106.159ZM4.07955 94.1818C4.07955 89.5055 4.67147 85.5387 5.84014 82.2691L4.89849 81.9326C3.68081 85.3392 3.07955 89.4264 3.07955 94.1818H4.07955ZM5.83974 82.2703C7.02292 78.9852 8.70785 76.5153 10.8757 74.8247L10.2607 74.0361C7.91147 75.8682 6.13049 78.5119 4.8989 81.9314L5.83974 82.2703ZM10.876 74.8244C13.0517 73.1247 15.6675 72.267 18.75 72.267V71.267C15.4688 71.267 12.6302 72.185 10.2604 74.0364L10.876 74.8244ZM18.75 72.267C21.8325 72.267 24.4406 73.1247 26.6015 74.8235L27.2195 74.0373C24.8634 72.185 22.0311 71.267 18.75 71.267V72.267ZM26.6042 74.8256C28.7853 76.5159 30.4696 78.9849 31.6383 82.2685L32.5804 81.9332C31.3628 78.5123 29.5812 75.8676 27.2168 74.0352L26.6042 74.8256ZM31.6392 82.2709C32.8216 85.5398 33.4205 89.506 33.4205 94.1818H34.4205C34.4205 89.4258 33.812 85.338 32.5796 81.9308L31.6392 82.2709ZM33.4205 94.1818C33.4205 98.8869 32.8285 102.875 31.6596 106.159L32.6017 106.494C33.8193 103.074 34.4205 98.9654 34.4205 94.1818H33.4205ZM31.6599 106.158C30.491 109.428 28.8134 111.891 26.6456 113.582L27.2606 114.37C29.6099 112.538 31.384 109.901 32.6015 106.495L31.6599 106.158ZM26.6472 113.58C24.4871 115.251 21.864 116.097 18.75 116.097V117.097C22.0565 117.097 24.9021 116.195 27.2591 114.371L26.6472 113.58ZM18.75 112.409C22.1339 112.409 24.76 110.758 26.5984 107.556L25.7311 107.058C24.0469 109.992 21.7298 111.409 18.75 111.409V112.409ZM26.5984 107.556C28.422 104.379 29.3068 99.9033 29.3068 94.1818H28.3068C28.3068 99.8239 27.4302 104.098 25.7311 107.058L26.5984 107.556ZM29.3068 94.1818C29.3068 90.3705 28.8988 87.1011 28.0706 84.384L27.1141 84.6756C27.9052 87.2711 28.3068 90.4363 28.3068 94.1818H29.3068ZM28.0713 84.3864C27.2589 81.6735 26.0706 79.5608 24.4801 78.0902L23.8012 78.8245C25.222 80.1381 26.3348 82.0736 27.1133 84.6733L28.0713 84.3864ZM24.4818 78.0919C22.8947 76.6105 20.9747 75.8693 18.75 75.8693V76.8693C20.7299 76.8693 22.4036 77.5201 23.7995 78.8229L24.4818 78.0919ZM18.75 75.8693C15.3895 75.8693 12.7723 77.5465 10.9223 80.7877L11.7908 81.2834C13.4919 78.303 15.8037 76.8693 18.75 76.8693V75.8693ZM10.9228 80.7868C9.08543 83.9911 8.19318 88.4733 8.19318 94.1818H9.19318C9.19318 88.5551 10.0765 84.2731 11.7903 81.2842L10.9228 80.7868ZM8.19318 94.1818C8.19318 97.9924 8.59395 101.254 9.40759 103.957L10.3651 103.668C9.58787 101.087 9.19318 97.9281 9.19318 94.1818H8.19318ZM9.40759 103.957C10.2199 106.655 11.401 108.753 12.9775 110.21L13.656 109.475C12.2496 108.176 11.1437 106.254 10.3651 103.668L9.40759 103.957ZM12.9792 110.211C14.5808 111.677 16.5137 112.409 18.75 112.409V111.409C16.7534 111.409 15.0641 110.764 13.6543 109.473L12.9792 110.211Z" fill="url(#paint2_linear_12_11)"/>
<path d="M10.5469 113.976L10.2394 114.37L10.2409 114.371L10.5469 113.976ZM5.36932 106.327L4.89827 106.494L4.89849 106.495L5.36932 106.327ZM5.36932 82.1009L4.8989 81.9314L4.89849 81.9326L5.36932 82.1009ZM10.5682 74.4304L10.8757 74.8247L10.876 74.8244L10.5682 74.4304ZM26.9105 74.4304L26.6015 74.8235L26.6042 74.8256L26.9105 74.4304ZM32.1094 82.1009L31.6383 82.2685L31.6392 82.2709L32.1094 82.1009ZM32.1307 106.327L32.6015 106.495L32.6017 106.494L32.1307 106.327ZM26.9531 113.976L27.2591 114.371L27.2606 114.37L26.9531 113.976ZM26.1648 107.307L25.7311 107.058L25.7311 107.058L26.1648 107.307ZM27.5923 84.5298L27.1133 84.6733L27.1141 84.6756L27.5923 84.5298ZM24.1406 78.4574L23.7995 78.8229L23.8012 78.8245L24.1406 78.4574ZM11.3565 81.0355L11.7903 81.2842L11.7908 81.2834L11.3565 81.0355ZM9.88636 103.812L9.40759 103.957L9.40759 103.957L9.88636 103.812ZM13.3168 109.842L12.9775 110.21L12.9792 110.211L13.3168 109.842ZM18.75 116.097C15.636 116.097 13.0129 115.251 10.8528 113.58L10.2409 114.371C12.5979 116.195 15.4435 117.097 18.75 117.097V116.097ZM10.8544 113.582C8.68659 111.891 7.00899 109.428 5.84014 106.158L4.89849 106.495C6.11601 109.901 7.89012 112.538 10.2394 114.37L10.8544 113.582ZM5.84037 106.159C4.67154 102.875 4.07955 98.8869 4.07955 94.1818H3.07955C3.07955 98.9654 3.68073 103.074 4.89827 106.494L5.84037 106.159ZM4.07955 94.1818C4.07955 89.5055 4.67147 85.5387 5.84014 82.2691L4.89849 81.9326C3.68081 85.3392 3.07955 89.4264 3.07955 94.1818H4.07955ZM5.83974 82.2703C7.02292 78.9852 8.70785 76.5153 10.8757 74.8247L10.2607 74.0361C7.91147 75.8682 6.13049 78.5119 4.8989 81.9314L5.83974 82.2703ZM10.876 74.8244C13.0517 73.1247 15.6675 72.267 18.75 72.267V71.267C15.4688 71.267 12.6302 72.185 10.2604 74.0364L10.876 74.8244ZM18.75 72.267C21.8325 72.267 24.4406 73.1247 26.6015 74.8235L27.2195 74.0373C24.8634 72.185 22.0311 71.267 18.75 71.267V72.267ZM26.6042 74.8256C28.7853 76.5159 30.4696 78.9849 31.6383 82.2685L32.5804 81.9332C31.3628 78.5123 29.5812 75.8676 27.2168 74.0352L26.6042 74.8256ZM31.6392 82.2709C32.8216 85.5398 33.4205 89.506 33.4205 94.1818H34.4205C34.4205 89.4258 33.812 85.338 32.5796 81.9308L31.6392 82.2709ZM33.4205 94.1818C33.4205 98.8869 32.8285 102.875 31.6596 106.159L32.6017 106.494C33.8193 103.074 34.4205 98.9654 34.4205 94.1818H33.4205ZM31.6599 106.158C30.491 109.428 28.8134 111.891 26.6456 113.582L27.2606 114.37C29.6099 112.538 31.384 109.901 32.6015 106.495L31.6599 106.158ZM26.6472 113.58C24.4871 115.251 21.864 116.097 18.75 116.097V117.097C22.0565 117.097 24.9021 116.195 27.2591 114.371L26.6472 113.58ZM18.75 112.409C22.1339 112.409 24.76 110.758 26.5984 107.556L25.7311 107.058C24.0469 109.992 21.7298 111.409 18.75 111.409V112.409ZM26.5984 107.556C28.422 104.379 29.3068 99.9033 29.3068 94.1818H28.3068C28.3068 99.8239 27.4302 104.098 25.7311 107.058L26.5984 107.556ZM29.3068 94.1818C29.3068 90.3705 28.8988 87.1011 28.0706 84.384L27.1141 84.6756C27.9052 87.2711 28.3068 90.4363 28.3068 94.1818H29.3068ZM28.0713 84.3864C27.2589 81.6735 26.0706 79.5608 24.4801 78.0902L23.8012 78.8245C25.222 80.1381 26.3348 82.0736 27.1133 84.6733L28.0713 84.3864ZM24.4818 78.0919C22.8947 76.6105 20.9747 75.8693 18.75 75.8693V76.8693C20.7299 76.8693 22.4036 77.5201 23.7995 78.8229L24.4818 78.0919ZM18.75 75.8693C15.3895 75.8693 12.7723 77.5465 10.9223 80.7877L11.7908 81.2834C13.4919 78.303 15.8037 76.8693 18.75 76.8693V75.8693ZM10.9228 80.7868C9.08543 83.9911 8.19318 88.4733 8.19318 94.1818H9.19318C9.19318 88.5551 10.0765 84.2731 11.7903 81.2842L10.9228 80.7868ZM8.19318 94.1818C8.19318 97.9924 8.59395 101.254 9.40759 103.957L10.3651 103.668C9.58787 101.087 9.19318 97.9281 9.19318 94.1818H8.19318ZM9.40759 103.957C10.2199 106.655 11.401 108.753 12.9775 110.21L13.656 109.475C12.2496 108.176 11.1437 106.254 10.3651 103.668L9.40759 103.957ZM12.9792 110.211C14.5808 111.677 16.5137 112.409 18.75 112.409V111.409C16.7534 111.409 15.0641 110.764 13.6543 109.473L12.9792 110.211Z" fill="black" fill-opacity="0.2"/>
<path d="M59.75 59.5966C56.5398 59.5966 53.8054 58.723 51.5469 56.9759C49.2884 55.2145 47.5625 52.6648 46.3693 49.3267C45.1761 45.9744 44.5795 41.9261 44.5795 37.1818C44.5795 32.4659 45.1761 28.4389 46.3693 25.1009C47.5767 21.7486 49.3097 19.1918 51.5682 17.4304C53.8409 15.6548 56.5682 14.767 59.75 14.767C62.9318 14.767 65.652 15.6548 67.9105 17.4304C70.1832 19.1918 71.9162 21.7486 73.1094 25.1009C74.3168 28.4389 74.9205 32.4659 74.9205 37.1818C74.9205 41.9261 74.3239 45.9744 73.1307 49.3267C71.9375 52.6648 70.2116 55.2145 67.9531 56.9759C65.6946 58.723 62.9602 59.5966 59.75 59.5966ZM59.75 54.9091C62.9318 54.9091 65.4034 53.375 67.1648 50.3068C68.9261 47.2386 69.8068 42.8636 69.8068 37.1818C69.8068 33.4034 69.402 30.1861 68.5923 27.5298C67.7969 24.8736 66.6463 22.8494 65.1406 21.4574C63.6491 20.0653 61.8523 19.3693 59.75 19.3693C56.5966 19.3693 54.1321 20.9247 52.3565 24.0355C50.581 27.1321 49.6932 31.5142 49.6932 37.1818C49.6932 40.9602 50.0909 44.1705 50.8864 46.8125C51.6818 49.4545 52.8253 51.4645 54.3168 52.8423C55.8224 54.2202 57.6335 54.9091 59.75 54.9091Z" fill="white"/>
<path d="M51.5469 56.9759L51.2394 57.3701L51.2409 57.3713L51.5469 56.9759ZM46.3693 49.3267L45.8983 49.4944L45.8985 49.495L46.3693 49.3267ZM46.3693 25.1009L45.8989 24.9314L45.8985 24.9326L46.3693 25.1009ZM51.5682 17.4304L51.8757 17.8247L51.876 17.8244L51.5682 17.4304ZM67.9105 17.4304L67.6015 17.8235L67.6042 17.8256L67.9105 17.4304ZM73.1094 25.1009L72.6383 25.2685L72.6392 25.2709L73.1094 25.1009ZM73.1307 49.3267L73.6015 49.495L73.6017 49.4944L73.1307 49.3267ZM67.9531 56.9759L68.2591 57.3713L68.2606 57.3701L67.9531 56.9759ZM67.1648 50.3068L66.7311 50.0579L66.7311 50.0579L67.1648 50.3068ZM68.5923 27.5298L68.1133 27.6733L68.1141 27.6756L68.5923 27.5298ZM65.1406 21.4574L64.7995 21.8229L64.8012 21.8245L65.1406 21.4574ZM52.3565 24.0355L52.7903 24.2842L52.7908 24.2834L52.3565 24.0355ZM50.8864 46.8125L50.4076 46.9566L50.4076 46.9566L50.8864 46.8125ZM54.3168 52.8423L53.9775 53.2096L53.9792 53.2112L54.3168 52.8423ZM59.75 59.0966C56.636 59.0966 54.0129 58.2514 51.8528 56.5804L51.2409 57.3713C53.5979 59.1946 56.4435 60.0966 59.75 60.0966V59.0966ZM51.8544 56.5816C49.6866 54.891 48.009 52.4284 46.8401 49.1584L45.8985 49.495C47.116 52.9011 48.8901 55.538 51.2394 57.3701L51.8544 56.5816ZM46.8404 49.159C45.6715 45.8752 45.0795 41.8869 45.0795 37.1818H44.0795C44.0795 41.9654 44.6807 46.0737 45.8983 49.4944L46.8404 49.159ZM45.0795 37.1818C45.0795 32.5055 45.6715 28.5387 46.8401 25.2691L45.8985 24.9326C44.6808 28.3392 44.0795 32.4264 44.0795 37.1818H45.0795ZM46.8397 25.2703C48.0229 21.9852 49.7079 19.5153 51.8757 17.8247L51.2607 17.0361C48.9115 18.8682 47.1305 21.5119 45.8989 24.9314L46.8397 25.2703ZM51.876 17.8244C54.0517 16.1247 56.6675 15.267 59.75 15.267V14.267C56.4688 14.267 53.6302 15.185 51.2604 17.0364L51.876 17.8244ZM59.75 15.267C62.8325 15.267 65.4406 16.1247 67.6015 17.8235L68.2195 17.0373C65.8634 15.185 63.0311 14.267 59.75 14.267V15.267ZM67.6042 17.8256C69.7853 19.5159 71.4696 21.9849 72.6383 25.2685L73.5804 24.9332C72.3628 21.5123 70.5812 18.8676 68.2168 17.0352L67.6042 17.8256ZM72.6392 25.2709C73.8216 28.5398 74.4205 32.506 74.4205 37.1818H75.4205C75.4205 32.4258 74.812 28.338 73.5796 24.9308L72.6392 25.2709ZM74.4205 37.1818C74.4205 41.8869 73.8285 45.8752 72.6596 49.159L73.6017 49.4944C74.8193 46.0737 75.4205 41.9654 75.4205 37.1818H74.4205ZM72.6599 49.1584C71.491 52.4284 69.8134 54.891 67.6456 56.5816L68.2606 57.3701C70.6099 55.538 72.384 52.9011 73.6015 49.495L72.6599 49.1584ZM67.6472 56.5804C65.4871 58.2514 62.864 59.0966 59.75 59.0966V60.0966C63.0565 60.0966 65.9021 59.1946 68.2591 57.3713L67.6472 56.5804ZM59.75 55.4091C63.1339 55.4091 65.76 53.7582 67.5984 50.5558L66.7311 50.0579C65.0469 52.9918 62.7298 54.4091 59.75 54.4091V55.4091ZM67.5984 50.5558C69.422 47.3791 70.3068 42.9033 70.3068 37.1818H69.3068C69.3068 42.8239 68.4302 47.0982 66.7311 50.0579L67.5984 50.5558ZM70.3068 37.1818C70.3068 33.3705 69.8988 30.1011 69.0706 27.384L68.1141 27.6756C68.9052 30.2711 69.3068 33.4363 69.3068 37.1818H70.3068ZM69.0713 27.3864C68.2589 24.6735 67.0706 22.5608 65.4801 21.0902L64.8012 21.8245C66.222 23.1381 67.3348 25.0736 68.1133 27.6733L69.0713 27.3864ZM65.4818 21.0919C63.8947 19.6105 61.9747 18.8693 59.75 18.8693V19.8693C61.7299 19.8693 63.4036 20.5201 64.7995 21.8229L65.4818 21.0919ZM59.75 18.8693C56.3895 18.8693 53.7723 20.5465 51.9223 23.7877L52.7908 24.2834C54.4919 21.303 56.8037 19.8693 59.75 19.8693V18.8693ZM51.9228 23.7868C50.0854 26.9911 49.1932 31.4733 49.1932 37.1818H50.1932C50.1932 31.5551 51.0765 27.2731 52.7903 24.2842L51.9228 23.7868ZM49.1932 37.1818C49.1932 40.9924 49.594 44.2542 50.4076 46.9566L51.3651 46.6684C50.5879 44.0867 50.1932 40.9281 50.1932 37.1818H49.1932ZM50.4076 46.9566C51.2199 49.6547 52.401 51.7532 53.9775 53.2096L54.656 52.4751C53.2496 51.1758 52.1437 49.2544 51.3651 46.6684L50.4076 46.9566ZM53.9792 53.2112C55.5808 54.6768 57.5137 55.4091 59.75 55.4091V54.4091C57.7534 54.4091 56.0641 53.7636 54.6543 52.4735L53.9792 53.2112Z" fill="url(#paint3_linear_12_11)"/>
<path d="M51.5469 56.9759L51.2394 57.3701L51.2409 57.3713L51.5469 56.9759ZM46.3693 49.3267L45.8983 49.4944L45.8985 49.495L46.3693 49.3267ZM46.3693 25.1009L45.8989 24.9314L45.8985 24.9326L46.3693 25.1009ZM51.5682 17.4304L51.8757 17.8247L51.876 17.8244L51.5682 17.4304ZM67.9105 17.4304L67.6015 17.8235L67.6042 17.8256L67.9105 17.4304ZM73.1094 25.1009L72.6383 25.2685L72.6392 25.2709L73.1094 25.1009ZM73.1307 49.3267L73.6015 49.495L73.6017 49.4944L73.1307 49.3267ZM67.9531 56.9759L68.2591 57.3713L68.2606 57.3701L67.9531 56.9759ZM67.1648 50.3068L66.7311 50.0579L66.7311 50.0579L67.1648 50.3068ZM68.5923 27.5298L68.1133 27.6733L68.1141 27.6756L68.5923 27.5298ZM65.1406 21.4574L64.7995 21.8229L64.8012 21.8245L65.1406 21.4574ZM52.3565 24.0355L52.7903 24.2842L52.7908 24.2834L52.3565 24.0355ZM50.8864 46.8125L50.4076 46.9566L50.4076 46.9566L50.8864 46.8125ZM54.3168 52.8423L53.9775 53.2096L53.9792 53.2112L54.3168 52.8423ZM59.75 59.0966C56.636 59.0966 54.0129 58.2514 51.8528 56.5804L51.2409 57.3713C53.5979 59.1946 56.4435 60.0966 59.75 60.0966V59.0966ZM51.8544 56.5816C49.6866 54.891 48.009 52.4284 46.8401 49.1584L45.8985 49.495C47.116 52.9011 48.8901 55.538 51.2394 57.3701L51.8544 56.5816ZM46.8404 49.159C45.6715 45.8752 45.0795 41.8869 45.0795 37.1818H44.0795C44.0795 41.9654 44.6807 46.0737 45.8983 49.4944L46.8404 49.159ZM45.0795 37.1818C45.0795 32.5055 45.6715 28.5387 46.8401 25.2691L45.8985 24.9326C44.6808 28.3392 44.0795 32.4264 44.0795 37.1818H45.0795ZM46.8397 25.2703C48.0229 21.9852 49.7079 19.5153 51.8757 17.8247L51.2607 17.0361C48.9115 18.8682 47.1305 21.5119 45.8989 24.9314L46.8397 25.2703ZM51.876 17.8244C54.0517 16.1247 56.6675 15.267 59.75 15.267V14.267C56.4688 14.267 53.6302 15.185 51.2604 17.0364L51.876 17.8244ZM59.75 15.267C62.8325 15.267 65.4406 16.1247 67.6015 17.8235L68.2195 17.0373C65.8634 15.185 63.0311 14.267 59.75 14.267V15.267ZM67.6042 17.8256C69.7853 19.5159 71.4696 21.9849 72.6383 25.2685L73.5804 24.9332C72.3628 21.5123 70.5812 18.8676 68.2168 17.0352L67.6042 17.8256ZM72.6392 25.2709C73.8216 28.5398 74.4205 32.506 74.4205 37.1818H75.4205C75.4205 32.4258 74.812 28.338 73.5796 24.9308L72.6392 25.2709ZM74.4205 37.1818C74.4205 41.8869 73.8285 45.8752 72.6596 49.159L73.6017 49.4944C74.8193 46.0737 75.4205 41.9654 75.4205 37.1818H74.4205ZM72.6599 49.1584C71.491 52.4284 69.8134 54.891 67.6456 56.5816L68.2606 57.3701C70.6099 55.538 72.384 52.9011 73.6015 49.495L72.6599 49.1584ZM67.6472 56.5804C65.4871 58.2514 62.864 59.0966 59.75 59.0966V60.0966C63.0565 60.0966 65.9021 59.1946 68.2591 57.3713L67.6472 56.5804ZM59.75 55.4091C63.1339 55.4091 65.76 53.7582 67.5984 50.5558L66.7311 50.0579C65.0469 52.9918 62.7298 54.4091 59.75 54.4091V55.4091ZM67.5984 50.5558C69.422 47.3791 70.3068 42.9033 70.3068 37.1818H69.3068C69.3068 42.8239 68.4302 47.0982 66.7311 50.0579L67.5984 50.5558ZM70.3068 37.1818C70.3068 33.3705 69.8988 30.1011 69.0706 27.384L68.1141 27.6756C68.9052 30.2711 69.3068 33.4363 69.3068 37.1818H70.3068ZM69.0713 27.3864C68.2589 24.6735 67.0706 22.5608 65.4801 21.0902L64.8012 21.8245C66.222 23.1381 67.3348 25.0736 68.1133 27.6733L69.0713 27.3864ZM65.4818 21.0919C63.8947 19.6105 61.9747 18.8693 59.75 18.8693V19.8693C61.7299 19.8693 63.4036 20.5201 64.7995 21.8229L65.4818 21.0919ZM59.75 18.8693C56.3895 18.8693 53.7723 20.5465 51.9223 23.7877L52.7908 24.2834C54.4919 21.303 56.8037 19.8693 59.75 19.8693V18.8693ZM51.9228 23.7868C50.0854 26.9911 49.1932 31.4733 49.1932 37.1818H50.1932C50.1932 31.5551 51.0765 27.2731 52.7903 24.2842L51.9228 23.7868ZM49.1932 37.1818C49.1932 40.9924 49.594 44.2542 50.4076 46.9566L51.3651 46.6684C50.5879 44.0867 50.1932 40.9281 50.1932 37.1818H49.1932ZM50.4076 46.9566C51.2199 49.6547 52.401 51.7532 53.9775 53.2096L54.656 52.4751C53.2496 51.1758 52.1437 49.2544 51.3651 46.6684L50.4076 46.9566ZM53.9792 53.2112C55.5808 54.6768 57.5137 55.4091 59.75 55.4091V54.4091C57.7534 54.4091 56.0641 53.7636 54.6543 52.4735L53.9792 53.2112Z" fill="black" fill-opacity="0.2"/>
<defs>
<linearGradient id="paint0_linear_12_11" x1="14" y1="0" x2="14" y2="73" gradientUnits="userSpaceOnUse">
<stop stop-color="#378D30"/>
<stop offset="0.0001" stop-color="#3B9833"/>
<stop offset="0.302621" stop-color="#0D210B"/>
<stop offset="0.385959"/>
<stop offset="0.724518"/>
</linearGradient>
<linearGradient id="paint1_linear_12_11" x1="65" y1="58" x2="65" y2="131" gradientUnits="userSpaceOnUse">
<stop stop-color="#378D30"/>
<stop offset="0.0001" stop-color="#3B9833"/>
<stop offset="0.302621" stop-color="#0D210B"/>
<stop offset="0.385959"/>
<stop offset="0.724518"/>
</linearGradient>
<linearGradient id="paint2_linear_12_11" x1="19" y1="58" x2="19" y2="131" gradientUnits="userSpaceOnUse">
<stop stop-color="#378D30"/>
<stop offset="0.0001" stop-color="#3B9833"/>
<stop offset="0.302621" stop-color="#0D210B"/>
<stop offset="0.385959"/>
<stop offset="0.724518"/>
</linearGradient>
<linearGradient id="paint3_linear_12_11" x1="60" y1="1" x2="60" y2="74" gradientUnits="userSpaceOnUse">
<stop stop-color="#378D30"/>
<stop offset="0.0001" stop-color="#3B9833"/>
<stop offset="0.302621" stop-color="#0D210B"/>
<stop offset="0.385959"/>
<stop offset="0.724518"/>
</linearGradient>
</defs>
</svg>
