<svg width="274" height="33" viewBox="0 0 274 33" fill="none" xmlns="http://www.w3.org/2000/svg">
<path fill-rule="evenodd" clip-rule="evenodd" d="M41.5704 29.6918L53.8686 1.59674H60.6538L73.4821 30.3279H66.909L65.0006 26.4052H49.9459L48.5677 30.3279H41.5704V29.6918ZM57.1545 10.3374L52.6731 20.5718H62.7133L57.1545 10.3374Z" fill="#161F26"/>
<path d="M24.9254 11.8806L29.8023 8.91207C29.3429 6.75635 26.5581 2.12685 19.0944 0.854625C11.6306 -0.417603 6.37208 3.78781 4.67578 6.04955C2.16666 8.70002 -1.55815 16.185 3.61558 24.9209C8.78931 33.6569 18.7056 32.1656 23.0171 30.3279C24.678 29.3737 28.3604 26.9565 29.8023 24.9209L24.9254 21.5283C23.6532 23.1539 20.0697 26.2568 15.9138 25.6631C11.7579 25.0694 9.2346 22.0938 8.49246 20.6802C7.64431 18.7365 6.4569 14.2554 8.49246 11.8806C11.0369 8.91207 11.0369 8.16991 15.9138 7.10973C19.8153 6.26158 23.5472 9.93692 24.9254 11.8806Z" fill="#161F26"/>
<path d="M88.3248 30.3279V1.59674H94.1559L110.165 20.6802V1.59674H116.526V30.3279H110.165L95.004 12.8348V30.3279H88.3248Z" fill="#161F26"/>
<path fill-rule="evenodd" clip-rule="evenodd" d="M132.853 30.3279H147.059C150.169 29.9745 155.91 27.8948 157.979 24.0728C159.765 20.7745 159.708 18.7843 159.888 17.4996C160.067 16.2149 160.866 11.3199 157.979 6.89769C154.858 2.11522 146.141 1.50177 142.288 1.59674L132.853 1.70276V30.3279ZM148.107 25.0269H139.338V10.4396V7.58215V6.89769L148.107 7.58215C149.848 8.46896 153.428 11.2673 153.822 15.3664C154.315 20.4901 151.95 21.4755 151.458 22.4608C151.458 23.2491 149.06 24.5 148.107 25.0269Z" fill="#161F26"/>
<path fill-rule="evenodd" clip-rule="evenodd" d="M247.198 30.3279L260.419 1.70276H267.131L279.742 30.3279H273.233L271.624 26.1833H256.436L254.661 30.3279H247.198ZM263.537 10.3374L259 20.6602H268.6L263.537 10.3374Z" fill="#161F26"/>
<path d="M212.791 1.59674H218.728V25.0269H233.783V30.3279H212.791V1.59674Z" fill="#161F26"/>
<path d="M175.26 1.59674H196.57V6.89769H181.516V13.5769H193.178V18.8778H181.516V25.0269H196.57V30.3279H176.639H175.26V1.59674Z" fill="#161F26"/>
<path d="M132.853 1.59674V1.70276M132.853 1.70276V30.3279H147.059C150.169 29.9745 155.91 27.8948 157.979 24.0728C159.765 20.7745 159.708 18.7843 159.888 17.4996C160.067 16.2149 160.866 11.3199 157.979 6.89769C154.858 2.11522 146.141 1.50177 142.288 1.59674L132.853 1.70276ZM139.338 6.89769L148.107 7.58215C149.848 8.46896 153.428 11.2673 153.822 15.3664C154.315 20.4901 151.95 21.4755 151.458 22.4608C151.458 23.2491 149.06 24.5 148.107 25.0269H139.338V10.4396M139.338 6.89769V10.4396M139.338 6.89769V7.58215V10.4396M24.9254 11.8806L29.8023 8.91207C29.3429 6.75635 26.5581 2.12685 19.0944 0.854625C11.6306 -0.417603 6.37208 3.78781 4.67578 6.04955C2.16666 8.70002 -1.55815 16.185 3.61558 24.9209C8.78931 33.6569 18.7056 32.1656 23.0171 30.3279C24.678 29.3737 28.3604 26.9565 29.8023 24.9209L24.9254 21.5283C23.6532 23.1539 20.0697 26.2568 15.9138 25.6631C11.7579 25.0694 9.2346 22.0938 8.49246 20.6802C7.64431 18.7365 6.4569 14.2554 8.49246 11.8806C11.0369 8.91207 11.0369 8.16991 15.9138 7.10973C19.8153 6.26158 23.5472 9.93692 24.9254 11.8806ZM41.5704 29.6918L53.8686 1.59674H60.6538L73.4821 30.3279H66.909L65.0006 26.4052H49.9459L48.5677 30.3279H41.5704V29.6918ZM88.3248 30.3279V1.59674H94.1559L110.165 20.6802V1.59674H116.526V30.3279H110.165L95.004 12.8348V30.3279H88.3248ZM175.26 1.59674H196.57V6.89769H181.516V13.5769H193.178V18.8778H181.516V25.0269H196.57V30.3279H176.639H175.26V1.59674ZM212.791 1.59674H218.728V25.0269H233.783V30.3279H212.791V1.59674ZM247.198 30.3279L260.419 1.70276H267.131L279.742 30.3279H273.233L271.624 26.1833H256.436L254.661 30.3279H247.198ZM259 20.6602L263.537 10.3374L268.6 20.6602H259ZM52.6731 20.5718L57.1545 10.3374L62.7133 20.5718H52.6731Z" stroke="#161F26"/>
</svg>
