<svg width="281" height="33" viewBox="0 0 281 33" fill="none" xmlns="http://www.w3.org/2000/svg">
<path fill-rule="evenodd" clip-rule="evenodd" d="M41.437 29.8218L53.7352 1.72677H60.5204L73.3487 30.4579H66.7755L64.8672 26.5352H49.8125L48.4342 30.4579H41.437V29.8218ZM57.0211 10.4674L52.5397 20.7018H62.5798L57.0211 10.4674Z" fill="#161F26"/>
<path d="M24.792 12.0106L29.6689 9.04211C29.2095 6.88639 26.4247 2.25689 18.961 0.98466C11.4972 -0.287568 6.23866 3.91785 4.54235 6.17958C2.03324 8.83006 -1.69157 16.315 3.48216 25.051C8.65589 33.7869 18.5722 32.2956 22.8836 30.4579C24.5446 29.5038 28.227 27.0865 29.6689 25.051L24.792 21.6584C23.5198 23.284 19.9363 26.3868 15.7804 25.7931C11.6244 25.1994 9.10117 22.2238 8.35904 20.8102C7.51089 18.8665 6.32348 14.3855 8.35904 12.0106C10.9035 9.04211 10.9035 8.29994 15.7804 7.23976C19.6819 6.39162 23.4137 10.067 24.792 12.0106Z" fill="#161F26"/>
<path d="M88.1914 30.4579V1.72677H94.0224L110.031 20.8102V1.72677H116.392V30.4579H110.031L94.8706 12.9648V30.4579H88.1914Z" fill="#161F26"/>
<path fill-rule="evenodd" clip-rule="evenodd" d="M132.719 30.4579H146.926C150.036 30.1045 155.776 28.0248 157.846 24.2028C159.632 20.9045 159.575 18.9143 159.754 17.6296C159.934 16.3449 160.732 11.45 157.846 7.02772C154.725 2.24526 146.007 1.6318 142.155 1.72677L132.719 1.83279V30.4579ZM147.974 25.157H139.204V10.5697V7.71218V7.02772L147.974 7.71218C149.715 8.59899 153.295 11.3974 153.689 15.4964C154.182 20.6202 151.817 21.6055 151.324 22.5909C151.324 23.3791 148.926 24.6301 147.974 25.157Z" fill="#161F26"/>
<path fill-rule="evenodd" clip-rule="evenodd" d="M247.065 30.4579L260.286 1.83279H266.998L279.609 30.4579H273.1L271.491 26.3133H256.302L254.527 30.4579H247.065ZM263.404 10.4674L258.867 20.7903H268.466L263.404 10.4674Z" fill="#161F26"/>
<path d="M212.658 1.72677H218.595V25.157H233.65V30.4579H212.658V1.72677Z" fill="#161F26"/>
<path d="M175.127 1.72677H196.437V7.02772H181.382V13.7069H193.044V19.0079H181.382V25.157H196.437V30.4579H176.505H175.127V1.72677Z" fill="#161F26"/>
<path d="M132.719 1.72677V1.83279M132.719 1.83279V30.4579H146.926C150.036 30.1045 155.776 28.0248 157.846 24.2028C159.632 20.9045 159.575 18.9143 159.754 17.6296C159.934 16.3449 160.732 11.45 157.846 7.02772C154.725 2.24526 146.007 1.6318 142.155 1.72677L132.719 1.83279ZM139.204 7.02772L147.974 7.71218C149.715 8.59899 153.295 11.3974 153.689 15.4964C154.182 20.6202 151.817 21.6055 151.324 22.5909C151.324 23.3791 148.926 24.6301 147.974 25.157H139.204V10.5697M139.204 7.02772V10.5697M139.204 7.02772V7.71218V10.5697M24.792 12.0106L29.6689 9.04211C29.2095 6.88639 26.4247 2.25689 18.961 0.98466C11.4972 -0.287568 6.23866 3.91785 4.54235 6.17958C2.03324 8.83006 -1.69157 16.315 3.48216 25.051C8.65589 33.7869 18.5722 32.2956 22.8836 30.4579C24.5446 29.5038 28.227 27.0865 29.6689 25.051L24.792 21.6584C23.5198 23.284 19.9363 26.3868 15.7804 25.7931C11.6244 25.1994 9.10117 22.2238 8.35904 20.8102C7.51089 18.8665 6.32348 14.3855 8.35904 12.0106C10.9035 9.04211 10.9035 8.29994 15.7804 7.23976C19.6819 6.39162 23.4137 10.067 24.792 12.0106ZM41.437 29.8218L53.7352 1.72677H60.5204L73.3487 30.4579H66.7755L64.8672 26.5352H49.8125L48.4342 30.4579H41.437V29.8218ZM88.1914 30.4579V1.72677H94.0224L110.031 20.8102V1.72677H116.392V30.4579H110.031L94.8706 12.9648V30.4579H88.1914ZM175.127 1.72677H196.437V7.02772H181.382V13.7069H193.044V19.0079H181.382V25.157H196.437V30.4579H176.505H175.127V1.72677ZM212.658 1.72677H218.595V25.157H233.65V30.4579H212.658V1.72677ZM247.065 30.4579L260.286 1.83279H266.998L279.609 30.4579H273.1L271.491 26.3133H256.302L254.527 30.4579H247.065ZM258.867 20.7903L263.404 10.4674L268.466 20.7903H258.867ZM52.5397 20.7018L57.0211 10.4674L62.5798 20.7018H52.5397Z" stroke="#354450"/>
</svg>
